<svg width="120" height="120" viewBox="0 0 120 120" fill="none" xmlns="http://www.w3.org/2000/svg">
<rect x="1" y="1" width="118" height="118" rx="59" stroke="#80B4FF" stroke-width="2" stroke-dasharray="2 2"/>
<rect x="1" y="1" width="118" height="118" rx="59" stroke="white" stroke-opacity="0.85" stroke-width="2" stroke-dasharray="2 2"/>
<path d="M42.6095 42.7336C41.8764 42.7336 41.2814 43.3286 41.2814 44.0618C41.2814 44.7949 41.8764 45.3899 42.6095 45.3899C43.3426 45.3899 43.9376 44.7949 43.9376 44.0618C43.9376 43.3286 43.3426 42.7336 42.6095 42.7336Z" fill="white"/>
<path d="M54.5619 67.5681H50.5778V63.584C50.5778 62.8506 49.9831 62.2559 49.2497 62.2559C48.5163 62.2559 47.9217 62.8506 47.9217 63.584V67.5681H43.9376C43.2042 67.5681 42.6095 68.1628 42.6095 68.8961C42.6095 69.6293 43.2042 70.2242 43.9376 70.2242H47.9217V74.2083C47.9217 74.9417 48.5164 75.5364 49.2497 75.5364C49.983 75.5364 50.5778 74.9417 50.5778 74.2083V70.2242H54.5619C55.2953 70.2242 55.89 69.6295 55.89 68.8961C55.89 68.1627 55.2954 67.5681 54.5619 67.5681Z" fill="white"/>
<path d="M90.4055 68.7634C87.4697 63.6785 80.9784 61.9383 75.8926 64.8748L70.498 67.9892V56.4564C70.498 55.0306 70.0265 53.6158 69.17 52.4723L62.5298 43.6189V39.8489C64.0755 39.3006 65.1859 37.8245 65.1859 36.0931V29.9841C65.1857 27.7873 63.3984 26 61.2016 26H37.2966C35.0997 26 33.3123 27.7873 33.3123 29.9841V36.0932C33.3123 37.8244 34.4228 39.3007 35.9685 39.849V43.619L29.3277 52.4729C28.4716 53.6159 28.0001 55.0306 28.0001 56.4564V82.1768C28.0001 85.8383 30.979 88.817 34.6403 88.817H55.9835C58.9613 93.8084 65.3822 95.479 70.4154 92.5728L86.517 83.2763C91.5579 80.3653 93.3561 73.876 90.4055 68.7634ZM35.9685 29.9841C35.9685 29.2518 36.5642 28.656 37.2964 28.656H61.2014C61.9338 28.656 62.5296 29.2518 62.5296 29.9841V36.0932C62.5296 36.8255 61.9338 37.4212 61.2014 37.4212H37.2966C36.5642 37.4212 35.9686 36.8254 35.9686 36.0932V29.9841H35.9685ZM31.4532 54.0657L38.3589 44.8584C38.5313 44.6286 38.6246 44.3489 38.6246 44.0615V40.0774H59.8734V42.7335H47.921C47.1876 42.7335 46.5929 43.3283 46.5929 44.0617C46.5929 44.795 47.1876 45.3898 47.921 45.3898H60.5375L67.0444 54.0653C67.4696 54.6331 67.7338 55.3124 67.8136 56.0142H30.6845C30.7642 55.3123 31.0284 54.633 31.4532 54.0657ZM34.6405 86.1609C32.4436 86.1609 30.6564 84.3736 30.6564 82.1768V80.8355H54.785C54.3639 82.5574 54.3667 84.3966 54.8489 86.161H34.6405V86.1609ZM55.8267 78.1925H30.6562V58.6701H67.8418V69.5225L59.7908 74.1712C58.1122 75.1409 56.7554 76.5212 55.8267 78.1925ZM69.0876 90.2725C65.2763 92.4733 60.406 91.1717 58.2037 87.3578C55.991 83.507 57.332 78.6588 61.1192 76.4713L68.3279 72.3092L76.2962 86.1104L69.0876 90.2725ZM85.1889 80.9761L78.5965 84.7824L70.6281 70.981L77.2206 67.1751C81.0344 64.9733 85.9029 66.2771 88.1052 70.0912C90.3172 73.9245 88.9721 78.7915 85.1889 80.9761Z" fill="white"/>
</svg>
